<?xml version="1.0" encoding="UTF-8"?><svg id="Layer_1" xmlns="http://www.w3.org/2000/svg" viewBox="0 0 66.29 88.98"><defs><style>.cls-1{fill:#101827;}.cls-2{fill:#f4b627;stroke:#101827;stroke-miterlimit:10;stroke-width:2px;}</style></defs><rect class="cls-1" x="13.68" y="44" width="38.91" height="38.91" rx="5.95" ry="5.95" transform="translate(54.57 -4.85) rotate(45)"/><rect class="cls-2" x="1.35" y="1.18" width="63.57" height="63.57" rx="12" ry="12"/><path class="cls-1" d="M23.68,7.73c.87,0,1.58,.71,1.58,1.58v4.73h3.15v-4.73c0-.87,.71-1.58,1.58-1.58s1.58,.71,1.58,1.58v4.73h3.15v-4.73c0-.87,.71-1.58,1.58-1.58s1.58,.71,1.58,1.58v4.73h3.15v-4.73c0-.87,.71-1.58,1.58-1.58s1.58,.71,1.58,1.58v4.73c4.35,0,7.88,3.53,7.88,7.88h4.73c.87,0,1.58,.71,1.58,1.58s-.71,1.58-1.58,1.58h-4.73v3.15h4.73c.87,0,1.58,.71,1.58,1.58s-.71,1.58-1.58,1.58h-4.73v3.15h4.73c.87,0,1.58,.71,1.58,1.58s-.71,1.58-1.58,1.58h-4.73v3.15h4.73c.87,0,1.58,.71,1.58,1.58s-.71,1.58-1.58,1.58h-4.73c0,4.35-3.53,7.88-7.88,7.88v4.73c0,.87-.71,1.58-1.58,1.58s-1.58-.71-1.58-1.58v-4.73h-3.15v4.73c0,.87-.71,1.58-1.58,1.58s-1.58-.71-1.58-1.58v-4.73h-3.15v4.73c0,.87-.71,1.58-1.58,1.58s-1.58-.71-1.58-1.58v-4.73h-3.15v4.73c0,.87-.71,1.58-1.58,1.58s-1.58-.71-1.58-1.58v-4.73c-4.35,0-7.88-3.53-7.88-7.88h-4.73c-.87,0-1.58-.71-1.58-1.58s.71-1.58,1.58-1.58h4.73v-3.15h-4.73c-.87,0-1.58-.71-1.58-1.58s.71-1.58,1.58-1.58h4.73v-3.15h-4.73c-.87,0-1.58-.71-1.58-1.58s.71-1.58,1.58-1.58h4.73v-3.15h-4.73c-.87,0-1.58-.71-1.58-1.58s.71-1.58,1.58-1.58h4.73c0-4.35,3.53-7.88,7.88-7.88v-4.73c0-.87,.71-1.58,1.58-1.58Zm-1.58,9.46c-2.61,0-4.73,2.12-4.73,4.73v22.08c0,2.61,2.12,4.73,4.73,4.73h22.08c2.61,0,4.73-2.12,4.73-4.73V21.92c0-2.61-2.12-4.73-4.73-4.73H22.1Zm1.58,11.04c0-2.61,2.12-4.73,4.73-4.73h9.46c2.61,0,4.73,2.12,4.73,4.73v9.46c0,2.61-2.12,4.73-4.73,4.73h-9.46c-2.61,0-4.73-2.12-4.73-4.73v-9.46Zm4.73-1.58c-.87,0-1.58,.71-1.58,1.58v9.46c0,.87,.71,1.58,1.58,1.58h9.46c.87,0,1.58-.71,1.58-1.58v-9.46c0-.87-.71-1.58-1.58-1.58h-9.46Z"/></svg>