<?xml version="1.0" encoding="UTF-8"?><svg id="Layer_1" xmlns="http://www.w3.org/2000/svg" viewBox="0 0 66.29 88.94"><defs><style>.cls-1{fill:#101827;}.cls-2{fill:#f4b627;stroke:#101827;stroke-miterlimit:10;stroke-width:2px;}</style></defs><rect class="cls-1" x="13.72" y="44.06" width="38.91" height="38.91" rx="5.95" ry="5.95" transform="translate(54.63 -4.86) rotate(45)"/><rect class="cls-2" x="1.39" y="1.31" width="63.57" height="63.57" rx="12" ry="12"/><path class="cls-1" d="M20.84,13.63c3.07-1.39,7.43-2.3,12.33-2.3s9.26,.9,12.33,2.3c3.22,1.47,4.41,3.15,4.41,4.4s-1.19,2.93-4.41,4.4c-3.07,1.39-7.43,2.3-12.33,2.3s-9.26-.9-12.33-2.3c-3.22-1.47-4.41-3.15-4.41-4.4s1.19-2.93,4.41-4.4Zm29.08,10.09v4.36c0,1.25-1.19,2.93-4.41,4.4-3.07,1.39-7.43,2.3-12.33,2.3s-9.26-.9-12.33-2.3c-3.22-1.47-4.41-3.15-4.41-4.4v-4.36c.91,.68,1.94,1.27,3.03,1.76,3.6,1.63,8.45,2.6,13.72,2.6s10.12-.97,13.72-2.6c1.07-.48,2.08-1.07,3.03-1.76Zm3.35-5.69c0-3.37-2.93-5.88-6.38-7.45-3.6-1.63-8.45-2.6-13.72-2.6s-10.12,.97-13.72,2.6c-3.45,1.57-6.38,4.07-6.38,7.45v30.14c0,3.37,2.93,5.88,6.38,7.45,3.6,1.63,8.45,2.6,13.72,2.6s10.12-.97,13.72-2.6c3.45-1.57,6.38-4.07,6.38-7.45V18.02Zm-3.35,15.74v4.36c0,1.25-1.19,2.93-4.41,4.4-3.07,1.39-7.43,2.3-12.33,2.3s-9.26-.9-12.33-2.3c-3.22-1.47-4.41-3.15-4.41-4.4v-4.36c.91,.68,1.94,1.27,3.03,1.76,3.6,1.63,8.45,2.6,13.72,2.6s10.12-.97,13.72-2.6c1.07-.48,2.08-1.07,3.03-1.76Zm0,10.05v4.36c0,1.25-1.19,2.93-4.41,4.4-3.07,1.39-7.43,2.3-12.33,2.3s-9.26-.9-12.33-2.3c-3.22-1.47-4.41-3.15-4.41-4.4v-4.36c.91,.68,1.94,1.27,3.03,1.76,3.6,1.63,8.45,2.6,13.72,2.6s10.12-.97,13.72-2.6c1.09-.49,2.12-1.08,3.03-1.76Z"/></svg>